<svg width="19" height="24" viewBox="0 0 19 24" fill="none" xmlns="http://www.w3.org/2000/svg">
<path d="M2 20C3.10457 20 4 20.8954 4 22C4 23.1046 3.10457 24 2 24C0.895431 24 0 23.1046 0 22C0 20.8954 0.895431 20 2 20ZM7 20C8.10457 20 9 20.8954 9 22C9 23.1046 8.10457 24 7 24C5.89543 24 5 23.1046 5 22C5 20.8954 5.89543 20 7 20ZM7 15C8.10457 15 9 15.8954 9 17C9 18.1046 8.10457 19 7 19C5.89543 19 5 18.1046 5 17C5 15.8954 5.89543 15 7 15ZM12 15C13.1046 15 14 15.8954 14 17C14 18.1046 13.1046 19 12 19C10.8954 19 10 18.1046 10 17C10 15.8954 10.8954 15 12 15ZM12 10C13.1046 10 14 10.8954 14 12C14 13.1046 13.1046 14 12 14C10.8954 14 10 13.1046 10 12C10 10.8954 10.8954 10 12 10ZM17 10C18.1046 10 19 10.8954 19 12C19 13.1046 18.1046 14 17 14C15.8954 14 15 13.1046 15 12C15 10.8954 15.8954 10 17 10ZM7 5C8.10457 5 9 5.89543 9 7C9 8.10457 8.10457 9 7 9C5.89543 9 5 8.10457 5 7C5 5.89543 5.89543 5 7 5ZM12 5C13.1046 5 14 5.89543 14 7C14 8.10457 13.1046 9 12 9C10.8954 9 10 8.10457 10 7C10 5.89543 10.8954 5 12 5ZM2 0C3.10457 4.62114e-08 4 0.895431 4 2C4 3.10457 3.10457 4 2 4C0.895431 4 4.82823e-08 3.10457 0 2C-4.82823e-08 0.895431 0.895431 4.82823e-08 2 0ZM7 0C8.10457 4.62114e-08 9 0.895431 9 2C9 3.10457 8.10457 4 7 4C5.89543 4 5 3.10457 5 2C5 0.895431 5.89543 4.82823e-08 7 0Z" fill="url(#paint0_radial_3001_3201)"/>
<defs>
<radialGradient id="paint0_radial_3001_3201" cx="0" cy="0" r="1" gradientUnits="userSpaceOnUse" gradientTransform="translate(2.5 12) rotate(-4.57392) scale(12.5399 21.2992)">
<stop stop-color="#6897FE" stop-opacity="0"/>
<stop offset="1" stop-color="#296AFF"/>
</radialGradient>
</defs>
</svg>
