<svg width="38" height="26" viewBox="0 0 38 26" fill="none" xmlns="http://www.w3.org/2000/svg">
<g filter="url(#filter0_i_3001_3221)">
<path d="M27.5971 0.0760258C25.9033 0.217336 24.3506 0.574332 23.3997 1.05033C22.4934 1.51144 21.1859 2.56756 20.8887 3.10305C20.8367 3.18486 20.5841 3.56417 20.3315 3.94348C19.7892 4.73928 18.7789 6.76969 18.2886 8.02661C17.4639 10.1314 17.3005 10.6371 13.3854 23.0873L12.6797 25.3186L12.9174 25.3409C13.2814 25.3855 14.6855 25.207 15.5101 25.0211C19.0983 24.2104 22.2482 21.7263 23.9346 18.372L24.254 17.7473L24.6775 17.7175C25.3164 17.6729 26.505 17.42 27.2628 17.1672C29.8035 16.3193 31.7944 14.5938 32.9905 12.1916C33.3619 11.4404 33.778 10.3099 33.882 9.75952L33.934 9.49178L33.6071 9.54384C32.2922 9.7744 31.8687 9.81902 30.7172 9.85621C29.4617 9.90083 28.7931 9.85621 27.6416 9.6554C27.3668 9.61078 27.1588 9.55128 27.181 9.5364C27.2033 9.51409 27.6491 9.38022 28.184 9.24634C33.0574 7.99686 36.4227 5.11115 37.7302 1.05776C37.8788 0.596644 37.9976 0.172712 37.9976 0.105775C37.9976 0.00908915 37.4479 -0.00578565 33.1911 0.00165175C30.5389 0.00908915 28.0279 0.0462762 27.5971 0.0760258Z" fill="url(#paint0_linear_3001_3221)"/>
</g>
<g filter="url(#filter1_i_3001_3221)">
<path d="M11.0692 0.0466181C9.55366 0.247428 7.83757 0.81267 6.46321 1.57129C3.38761 3.27445 1.13663 6.23454 0.297159 9.69293C0.0297159 10.7788 0 11.106 0 12.8241C0.00742897 14.0364 0.0371449 14.5272 0.14115 15.0181C0.393735 16.2378 0.676036 17.0931 1.15149 18.1046C2.52585 21.035 4.9477 23.3108 7.95643 24.5008C9.05592 24.9396 9.5908 25.0735 11.136 25.3189C11.2549 25.3412 11.8269 25.371 12.399 25.3858C12.9784 25.4007 13.2756 25.3933 13.0676 25.371L12.6813 25.3189L13.387 23.0877C17.2872 10.6821 17.4655 10.1317 18.2901 8.02695C18.9439 6.33122 19.9988 4.35287 20.868 3.15545C20.9497 3.04389 20.8977 2.98439 20.2811 2.51584C18.617 1.24404 16.4477 0.358989 14.3528 0.0763677C13.8105 0.00199364 11.5669 -0.0203186 11.0692 0.0466181ZM13.5504 9.031C15.222 9.46981 16.3883 10.9424 16.3883 12.6381C16.3883 13.8876 15.95 14.7727 14.8728 15.7247C14.1968 16.3197 12.6738 16.6023 11.6486 16.3271C10.0885 15.9032 8.87762 14.319 8.87762 12.7125C8.87762 12.244 9.04106 11.4779 9.22678 11.0837C9.67995 10.1094 10.7423 9.25412 11.8269 9.00125C12.2727 8.89713 13.0898 8.912 13.5504 9.031Z" fill="#03A9F4"/>
<path d="M11.0692 0.0466181C9.55366 0.247428 7.83757 0.81267 6.46321 1.57129C3.38761 3.27445 1.13663 6.23454 0.297159 9.69293C0.0297159 10.7788 0 11.106 0 12.8241C0.00742897 14.0364 0.0371449 14.5272 0.14115 15.0181C0.393735 16.2378 0.676036 17.0931 1.15149 18.1046C2.52585 21.035 4.9477 23.3108 7.95643 24.5008C9.05592 24.9396 9.5908 25.0735 11.136 25.3189C11.2549 25.3412 11.8269 25.371 12.399 25.3858C12.9784 25.4007 13.2756 25.3933 13.0676 25.371L12.6813 25.3189L13.387 23.0877C17.2872 10.6821 17.4655 10.1317 18.2901 8.02695C18.9439 6.33122 19.9988 4.35287 20.868 3.15545C20.9497 3.04389 20.8977 2.98439 20.2811 2.51584C18.617 1.24404 16.4477 0.358989 14.3528 0.0763677C13.8105 0.00199364 11.5669 -0.0203186 11.0692 0.0466181ZM13.5504 9.031C15.222 9.46981 16.3883 10.9424 16.3883 12.6381C16.3883 13.8876 15.95 14.7727 14.8728 15.7247C14.1968 16.3197 12.6738 16.6023 11.6486 16.3271C10.0885 15.9032 8.87762 14.319 8.87762 12.7125C8.87762 12.244 9.04106 11.4779 9.22678 11.0837C9.67995 10.1094 10.7423 9.25412 11.8269 9.00125C12.2727 8.89713 13.0898 8.912 13.5504 9.031Z" fill="url(#paint1_linear_3001_3221)"/>
<path d="M23.9658 18.306C22.8143 20.6711 20.8754 22.6569 18.4535 23.9436C18.0672 24.1444 17.7849 24.3155 17.8146 24.3155C17.9409 24.3155 19.0776 23.6907 19.6719 23.2891C20.8977 22.471 21.8709 21.5562 22.7549 20.3959C23.3789 19.5704 24.0253 18.492 24.2556 17.8747C24.3967 17.5028 24.2556 17.7185 23.9658 18.306Z" fill="#1596EC"/>
<path d="M17.3137 24.4708C17.1502 24.5452 17.0982 24.5898 17.2022 24.5675C17.4102 24.5154 17.7965 24.3221 17.6851 24.3221C17.648 24.3221 17.4771 24.389 17.3137 24.4708Z" fill="#1596EC"/>
<path d="M16.4942 24.7686C16.2937 24.843 16.2194 24.8951 16.3382 24.8727C16.5685 24.8207 17.0588 24.6273 16.94 24.6273C16.9028 24.6273 16.7023 24.6868 16.4942 24.7686Z" fill="#1596EC"/>
<path d="M15.007 25.1329C14.8064 25.185 14.8064 25.1924 14.9699 25.1924C15.0739 25.1924 15.2373 25.1627 15.3413 25.1329C15.4899 25.0883 15.4973 25.0734 15.3784 25.0734C15.2967 25.0734 15.1333 25.1032 15.007 25.1329Z" fill="#1596EC"/>
<path d="M14.3994 25.2594C14.4662 25.2743 14.5851 25.2743 14.6594 25.2594C14.7262 25.2371 14.6668 25.2222 14.5257 25.2222C14.3845 25.2222 14.3251 25.2371 14.3994 25.2594Z" fill="#1596EC"/>
<path d="M13.7611 25.3336C13.8503 25.3485 13.9989 25.3485 14.0954 25.3336C14.1846 25.3187 14.1103 25.3039 13.9246 25.3039C13.7389 25.3039 13.6646 25.3187 13.7611 25.3336Z" fill="#1596EC"/>
</g>
<defs>
<filter id="filter0_i_3001_3221" x="12.6797" y="0" width="25.9112" height="26.5343" filterUnits="userSpaceOnUse" color-interpolation-filters="sRGB">
<feFlood flood-opacity="0" result="BackgroundImageFix"/>
<feBlend mode="normal" in="SourceGraphic" in2="BackgroundImageFix" result="shape"/>
<feColorMatrix in="SourceAlpha" type="matrix" values="0 0 0 0 0 0 0 0 0 0 0 0 0 0 0 0 0 0 127 0" result="hardAlpha"/>
<feOffset dx="0.593253" dy="1.18651"/>
<feGaussianBlur stdDeviation="0.978868"/>
<feComposite in2="hardAlpha" operator="arithmetic" k2="-1" k3="1"/>
<feColorMatrix type="matrix" values="0 0 0 0 0.973077 0 0 0 0 0.973077 0 0 0 0 0.973077 0 0 0 0.25 0"/>
<feBlend mode="normal" in2="shape" result="effect1_innerShadow_3001_3221"/>
</filter>
<filter id="filter1_i_3001_3221" x="0" y="0.00674438" width="24.904" height="26.5733" filterUnits="userSpaceOnUse" color-interpolation-filters="sRGB">
<feFlood flood-opacity="0" result="BackgroundImageFix"/>
<feBlend mode="normal" in="SourceGraphic" in2="BackgroundImageFix" result="shape"/>
<feColorMatrix in="SourceAlpha" type="matrix" values="0 0 0 0 0 0 0 0 0 0 0 0 0 0 0 0 0 0 127 0" result="hardAlpha"/>
<feOffset dx="0.593253" dy="1.18651"/>
<feGaussianBlur stdDeviation="0.978868"/>
<feComposite in2="hardAlpha" operator="arithmetic" k2="-1" k3="1"/>
<feColorMatrix type="matrix" values="0 0 0 0 0.973077 0 0 0 0 0.973077 0 0 0 0 0.973077 0 0 0 0.25 0"/>
<feBlend mode="normal" in2="shape" result="effect1_innerShadow_3001_3221"/>
</filter>
<linearGradient id="paint0_linear_3001_3221" x1="25.3387" y1="22.3702" x2="25.3387" y2="3.58789e-06" gradientUnits="userSpaceOnUse">
<stop stop-color="#4081FF"/>
<stop offset="1" stop-color="#3578F8"/>
</linearGradient>
<linearGradient id="paint1_linear_3001_3221" x1="10.449" y1="22.4114" x2="10.449" y2="0.00673081" gradientUnits="userSpaceOnUse">
<stop stop-color="#4081FF"/>
<stop offset="1" stop-color="#3578F8"/>
</linearGradient>
</defs>
</svg>
