<svg width="125" height="20" viewBox="0 0 125 20" fill="none" xmlns="http://www.w3.org/2000/svg">
<path d="M1.67031 18V3.99609H4.26797L4.2582 15.9199H10.3422V18H1.67031ZM21.1223 17.4629C20.2303 17.9186 19.2505 18.1465 18.1828 18.1465C17.1151 18.1465 16.1353 17.9186 15.2434 17.4629C14.3514 17.0072 13.6353 16.3464 13.0949 15.4805C12.5546 14.6081 12.2844 13.6152 12.2844 12.502C12.2844 11.3887 12.5546 10.3991 13.0949 9.5332C13.6353 8.66081 14.3514 7.99674 15.2434 7.54102C16.1353 7.07878 17.1151 6.84766 18.1828 6.84766C19.2505 6.84766 20.2303 7.07878 21.1223 7.54102C22.0142 7.99674 22.7303 8.66081 23.2707 9.5332C23.8176 10.3991 24.091 11.3887 24.091 12.502C24.091 13.6152 23.8176 14.6081 23.2707 15.4805C22.7303 16.3464 22.0142 17.0072 21.1223 17.4629ZM15.7219 15.0508C16.399 15.7279 17.2193 16.0664 18.1828 16.0664C19.1529 16.0664 19.9732 15.7279 20.6437 15.0508C21.3143 14.3737 21.6496 13.5241 21.6496 12.502C21.6496 11.4733 21.3143 10.6204 20.6437 9.94336C19.9732 9.26628 19.1529 8.92773 18.1828 8.92773C17.2193 8.92773 16.399 9.26628 15.7219 9.94336C15.0513 10.6204 14.716 11.4733 14.716 12.502C14.716 13.5241 15.0513 14.3737 15.7219 15.0508ZM32.918 16.1152C33.5365 16.1152 34.0964 15.9688 34.5977 15.6758C35.1055 15.3828 35.5059 14.9596 35.7988 14.4062L38.0059 15.334C37.5371 16.1999 36.847 16.8867 35.9355 17.3945C35.0241 17.8958 34.0182 18.1465 32.918 18.1465C31.8503 18.1465 30.8704 17.9186 29.9785 17.4629C29.0866 17.0072 28.3704 16.3464 27.8301 15.4805C27.2897 14.6081 27.0195 13.6152 27.0195 12.502C27.0195 11.3887 27.2897 10.3991 27.8301 9.5332C28.3704 8.66081 29.0866 7.99674 29.9785 7.54102C30.8704 7.07878 31.8503 6.84766 32.918 6.84766C34.0182 6.84766 35.0241 7.10156 35.9355 7.60938C36.8535 8.11719 37.5436 8.80404 38.0059 9.66992L35.7988 10.5879C35.5059 10.0345 35.1055 9.61133 34.5977 9.31836C34.0964 9.02539 33.5365 8.87891 32.918 8.87891C31.9544 8.87891 31.1374 9.2207 30.4668 9.9043C29.7962 10.5879 29.4609 11.4538 29.4609 12.502C29.4609 13.5501 29.7962 14.416 30.4668 15.0996C31.1374 15.7767 31.9544 16.1152 32.918 16.1152ZM51.784 7.00391L47.2527 11.6914L51.784 18H48.9324L45.6121 13.3906L43.952 15.1094V18H41.5203V3H43.952V11.916L48.698 7.00391H51.784ZM61.2445 18V3.99609H63.8422L63.8324 15.9199H69.9164V18H61.2445ZM77.757 6.83789C78.6164 6.83789 79.4139 6.99414 80.1496 7.30664C80.8918 7.61914 81.5233 8.05208 82.0441 8.60547C82.565 9.15885 82.9621 9.84245 83.2355 10.6562C83.509 11.4701 83.6197 12.3587 83.5676 13.3223H74.3781C74.5474 14.1816 74.9445 14.8783 75.5695 15.4121C76.1945 15.9395 76.9237 16.2031 77.757 16.2031C78.4732 16.2031 79.1079 16.0176 79.6613 15.6465C80.2212 15.2689 80.6477 14.7513 80.9406 14.0938L83.0305 15.0996C82.5487 16.0436 81.8325 16.7891 80.882 17.3359C79.9315 17.8828 78.8898 18.1562 77.757 18.1562C76.9628 18.1562 76.2075 18.0228 75.4914 17.7559C74.7753 17.4824 74.147 17.1048 73.6066 16.623C73.0728 16.1413 72.6463 15.5456 72.3273 14.8359C72.0148 14.1198 71.8586 13.3418 71.8586 12.502C71.8586 11.6621 72.0148 10.8874 72.3273 10.1777C72.6463 9.46159 73.0728 8.86263 73.6066 8.38086C74.147 7.89258 74.7753 7.51497 75.4914 7.24805C76.2075 6.97461 76.9628 6.83789 77.757 6.83789ZM77.757 8.80078C76.8846 8.80078 76.1424 9.06445 75.5305 9.5918C74.9185 10.1191 74.5311 10.8158 74.3684 11.6816H81.1555C80.9927 10.8092 80.6053 10.1126 79.9934 9.5918C79.3814 9.06445 78.6359 8.80078 77.757 8.80078ZM91.75 6.83789C92.707 6.83789 93.5469 7.00716 94.2695 7.3457C94.9922 7.68424 95.5228 8.14974 95.8613 8.74219L95.9688 7.00391H98.3027V18H95.9688L95.8613 16.2617C95.2168 17.5312 93.8464 18.1628 91.75 18.1562C90.7865 18.1562 89.901 17.9154 89.0938 17.4336C88.293 16.9518 87.6582 16.278 87.1895 15.4121C86.7272 14.5462 86.4961 13.5762 86.4961 12.502C86.4961 11.4277 86.7272 10.4577 87.1895 9.5918C87.6582 8.72591 88.293 8.05208 89.0938 7.57031C89.901 7.08203 90.7865 6.83789 91.75 6.83789ZM92.3945 16.0664C93.3581 16.0664 94.1751 15.7279 94.8457 15.0508C95.5228 14.3672 95.8613 13.5176 95.8613 12.502C95.8613 11.4798 95.526 10.6302 94.8555 9.95312C94.1849 9.26953 93.3646 8.92773 92.3945 8.92773C91.4375 8.92773 90.6237 9.26953 89.9531 9.95312C89.2826 10.6302 88.9473 11.4798 88.9473 12.502C88.9473 13.5176 89.2826 14.3672 89.9531 15.0508C90.6237 15.7279 91.4375 16.0664 92.3945 16.0664ZM112.53 7.00391L107.999 11.6914L112.53 18H109.679L106.358 13.3906L104.698 15.1094V18H102.266V3H104.698V11.916L109.444 7.00391H112.53ZM123.671 9.68945L121.23 9.85547C121.145 9.51042 120.924 9.21745 120.566 8.97656C120.208 8.73568 119.785 8.61523 119.296 8.61523C118.711 8.61523 118.229 8.73242 117.851 8.9668C117.474 9.20117 117.285 9.53646 117.285 9.97266C117.285 10.3958 117.467 10.7116 117.832 10.9199C118.203 11.1217 118.795 11.3171 119.609 11.5059C120.234 11.6556 120.761 11.7988 121.191 11.9355C121.621 12.0658 122.028 12.222 122.412 12.4043C122.796 12.5866 123.095 12.7884 123.31 13.0098C123.532 13.2246 123.701 13.4785 123.818 13.7715C123.935 14.0645 123.987 14.3965 123.974 14.7676C123.948 15.8353 123.528 16.6654 122.714 17.2578C121.901 17.8438 120.784 18.1367 119.365 18.1367C118.004 18.1367 116.901 17.8796 116.054 17.3652C115.208 16.8444 114.716 16.0892 114.58 15.0996L117.002 14.8848C117.125 15.36 117.412 15.7214 117.861 15.9688C118.31 16.2161 118.811 16.3398 119.365 16.3398C119.977 16.3398 120.488 16.2129 120.898 15.959C121.308 15.6986 121.513 15.347 121.513 14.9043C121.513 14.5983 121.386 14.3281 121.132 14.0938C120.879 13.8594 120.566 13.6738 120.195 13.5371C119.83 13.3939 119.375 13.2604 118.828 13.1367C118.06 12.9479 117.451 12.7786 117.002 12.6289C116.552 12.4727 116.152 12.2741 115.8 12.0332C115.449 11.7923 115.201 11.5091 115.058 11.1836C114.921 10.8516 114.853 10.4479 114.853 9.97266C114.853 8.96354 115.254 8.1888 116.054 7.64844C116.862 7.10807 117.962 6.83789 119.355 6.83789C120.579 6.83789 121.572 7.08203 122.334 7.57031C123.095 8.05208 123.541 8.75846 123.671 9.68945Z" fill="#151515"/>
<rect x="11" y="5" width="14" height="14" rx="7" fill="url(#paint0_linear_3001_4200)"/>
<path d="M18.0028 8.34776C19.0114 8.34776 19.8289 9.16532 19.8289 10.1738C19.8289 10.7237 19.5857 11.2166 19.2011 11.5512C19.0372 11.6939 18.9159 11.8888 18.9159 12.106V15.6521H17.0898V12.106C17.0898 11.8888 16.9685 11.6939 16.8046 11.5512C16.42 11.2166 16.1768 10.7237 16.1768 10.1738C16.1768 9.16532 16.9943 8.34776 18.0028 8.34776Z" fill="url(#paint1_linear_3001_4200)"/>
<defs>
<linearGradient id="paint0_linear_3001_4200" x1="18.3043" y1="9.21591" x2="18.3043" y2="18.4432" gradientUnits="userSpaceOnUse">
<stop stop-color="#3D78FF"/>
<stop offset="1" stop-color="#578AFF"/>
</linearGradient>
<linearGradient id="paint1_linear_3001_4200" x1="18.0028" y1="8.34776" x2="18.0028" y2="15.6521" gradientUnits="userSpaceOnUse">
<stop stop-color="white"/>
<stop offset="1" stop-color="#F6F6F6"/>
</linearGradient>
</defs>
</svg>
